<?xml version="1.0" encoding="utf-8"?>
<!-- Generator: Adobe Illustrator 24.2.3, SVG Export Plug-In . SVG Version: 6.00 Build 0)  -->
<svg version="1.1" id="レイヤー_1" xmlns="http://www.w3.org/2000/svg" xmlns:xlink="http://www.w3.org/1999/xlink" x="0px"
	 y="0px" viewBox="0 0 106 36" style="enable-background:new 0 0 106 36;" xml:space="preserve">
<style type="text/css">
	.st0{enable-background:new    ;}
	.st1{fill:#FFFFFF;}
</style>
<g class="st0">
	<path class="st1" d="M3,10.7C3,10.3,2.7,10,2.3,10H1V6.7h3.8c1.4,0,2,0.6,2,2v7h9.4v-7c0-1.4,0.6-2,2-2h3.8V10h-1.3
		c-0.4,0-0.7,0.2-0.7,0.7V28h-3.9v-8.9H6.9V28H3V10.7z"/>
	<path class="st1" d="M25.8,16.6c0-0.5-0.2-0.7-0.7-0.7h-1.2v-3.2h3.6c1.4,0,2,0.6,2,2v9.4c0,0.4,0.2,0.7,0.7,0.7h1.2V28h-3.6
		c-1.4,0-2-0.6-2-2V16.6z M26,6.7h3.3v3.5H26V6.7z"/>
	<path class="st1" d="M34.7,23.1c0,0,2,2.2,4.6,2.2c1.2,0,2.1-0.5,2.1-1.5c0-2.2-8.1-2.1-8.1-7.1c0-3.1,2.8-4.5,5.9-4.5
		c2.1,0,5.4,0.7,5.4,3.2v1.6h-3.4v-0.8c0-0.7-1.1-1.1-1.9-1.1c-1.4,0-2.3,0.5-2.3,1.4c0,2.4,8.1,1.9,8.1,7c0,2.9-2.5,4.7-5.9,4.7
		c-4.2,0-6.4-2.7-6.4-2.7L34.7,23.1z"/>
	<path class="st1" d="M48.7,15.7h-2v-3h2.1V8.5h3.7v4.2H56v3h-3.5v6.2c0,2.5,2,2.9,3,2.9c0.4,0,0.7-0.1,0.7-0.1v3.3
		c0,0-0.5,0.1-1.2,0.1c-2.1,0-6.4-0.6-6.4-5.8V15.7z"/>
	<path class="st1" d="M66.4,12.3c4.7,0,8.4,3.3,8.4,8c0,4.7-3.7,8-8.4,8c-4.6,0-8.4-3.3-8.4-8C58,15.7,61.7,12.3,66.4,12.3z
		 M66.4,25.1c2.5,0,4.6-1.9,4.6-4.8c0-2.8-2.1-4.8-4.6-4.8c-2.5,0-4.5,2-4.5,4.8C61.9,23.2,63.9,25.1,66.4,25.1z"/>
	<path class="st1" d="M78.2,16.6c0-0.5-0.2-0.7-0.7-0.7h-1.2v-3.2h3.5c1.3,0,2,0.6,2,1.9v0.9c0,0.6-0.1,1-0.1,1h0.1
		c0.7-2.2,2.5-3.9,4.9-3.9c0.3,0,0.7,0.1,0.7,0.1v3.7c0,0-0.4-0.1-0.9-0.1c-1.6,0-3.5,0.9-4.2,3.2C82.1,20.2,82,21,82,21.9V28h-3.8
		V16.6z"/>
	<path class="st1" d="M92.2,31.1c1.1,0,2-0.6,2.5-2l0.5-1.2l-5.1-11.5c-0.2-0.5-0.4-0.5-0.8-0.5h-0.5v-3.2h2.5c1.1,0,1.6,0.4,2,1.4
		l3,7.6c0.3,0.8,0.5,2,0.5,2H97c0,0,0.2-1.3,0.5-2l2.6-7.6c0.4-1,1-1.4,2-1.4h2.6v3.2h-0.5c-0.4,0-0.7,0.1-0.9,0.5l-5.5,13.8
		c-1.1,2.8-3.2,4-5.5,4c-2.4,0-3.9-1.6-3.9-1.6L90,30C90,30,90.9,31.1,92.2,31.1z"/>
</g>
</svg>
