<?xml version="1.0" encoding="utf-8"?>
<!-- Generator: Adobe Illustrator 24.2.3, SVG Export Plug-In . SVG Version: 6.00 Build 0)  -->
<svg version="1.1" id="レイヤー_1" xmlns="http://www.w3.org/2000/svg" xmlns:xlink="http://www.w3.org/1999/xlink" x="0px"
	 y="0px" viewBox="0 0 204.1 25.8" style="enable-background:new 0 0 204.1 25.8;" xml:space="preserve">
<style type="text/css">
	.st0{enable-background:new    ;}
	.st1{fill:#FFFFFF;}
</style>
<g id="グループ_5" transform="translate(-581 -1796.153)">
	<g class="st0">
		<path class="st1" d="M582.7,1804.8h-1.1v-1.9h5.5c2.3,0,3.8,1.6,3.8,3.9s-1.6,4-3.8,4h-2.2v4.2h-2.2V1804.8z M586.7,1808.9
			c1.3,0,2-0.8,2-2.1c0-1.2-0.7-2-1.9-2h-1.8v4.1H586.7z"/>
		<path class="st1" d="M596.2,1806.1c2.7,0,4.8,1.9,4.8,4.5c0,2.7-2.1,4.5-4.8,4.5c-2.6,0-4.7-1.9-4.7-4.5
			C591.5,1808,593.6,1806.1,596.2,1806.1z M596.2,1813.4c1.4,0,2.6-1.1,2.6-2.7c0-1.6-1.2-2.7-2.6-2.7c-1.4,0-2.6,1.1-2.6,2.7
			C593.7,1812.3,594.8,1813.4,596.2,1813.4z"/>
		<path class="st1" d="M602.2,1808.5c-0.1-0.3-0.2-0.3-0.5-0.3h-0.2v-1.8h1.5c0.7,0,1.1,0.2,1.2,0.9l1.3,4.8
			c0.1,0.5,0.2,0.9,0.2,0.9h0c0,0,0.1-0.5,0.2-0.9l1.6-5.7h1.9l1.6,5.7c0.1,0.5,0.2,0.9,0.2,0.9h0c0,0,0.1-0.5,0.2-0.9l1.3-4.8
			c0.2-0.7,0.5-0.9,1.2-0.9h1.5v1.8h-0.2c-0.3,0-0.4,0.1-0.5,0.3l-2.1,6.5h-2.4l-1.5-4.9c-0.1-0.5-0.2-0.9-0.2-0.9h0
			c0,0-0.1,0.5-0.2,0.9l-1.5,4.9h-2.4L602.2,1808.5z"/>
		<path class="st1" d="M620.3,1806.1c2.5,0,3.8,1.8,3.8,4.1c0,0.3-0.1,0.8-0.1,0.8h-6c0.2,1.5,1.3,2.3,2.6,2.3c1.4,0,2.4-1,2.4-1
			l0.9,1.5c0,0-1.3,1.3-3.5,1.3c-2.9,0-4.7-2.1-4.7-4.5C615.9,1808,617.7,1806.1,620.3,1806.1z M622,1809.5c0-1-0.7-1.8-1.6-1.8
			c-1.1,0-1.9,0.7-2.1,1.8H622z"/>
		<path class="st1" d="M626.3,1808.5c0-0.3-0.1-0.4-0.4-0.4h-0.7v-1.8h2c0.8,0,1.2,0.3,1.2,1.1v0.5c0,0.3,0,0.5,0,0.5h0
			c0.4-1.2,1.4-2.2,2.8-2.2c0.2,0,0.4,0,0.4,0v2.1c0,0-0.2,0-0.5,0c-0.9,0-2,0.5-2.4,1.8c-0.1,0.4-0.2,0.9-0.2,1.4v3.4h-2.1V1808.5z
			"/>
		<path class="st1" d="M636.5,1806.1c2.5,0,3.8,1.8,3.8,4.1c0,0.3-0.1,0.8-0.1,0.8h-6c0.2,1.5,1.3,2.3,2.6,2.3c1.4,0,2.4-1,2.4-1
			l0.9,1.5c0,0-1.3,1.3-3.5,1.3c-2.9,0-4.7-2.1-4.7-4.5C632.1,1808,633.9,1806.1,636.5,1806.1z M638.1,1809.5c0-1-0.7-1.8-1.6-1.8
			c-1.1,0-1.9,0.7-2.1,1.8H638.1z"/>
		<path class="st1" d="M645.5,1806.1c1.9,0,2.5,1.1,2.5,1.1h0c0,0,0-0.2,0-0.5v-1.5c0-0.3-0.1-0.4-0.4-0.4H647v-1.8h2.1
			c0.8,0,1.2,0.4,1.2,1.2v8.7c0,0.2,0.1,0.4,0.4,0.4h0.7v1.8h-2c-0.8,0-1.1-0.4-1.1-0.9c0-0.2,0-0.3,0-0.3h0c0,0-0.7,1.4-2.7,1.4
			c-2.3,0-3.9-1.9-3.9-4.5C641.6,1807.9,643.2,1806.1,645.5,1806.1z M648.1,1810.6c0-1.3-0.7-2.7-2.1-2.7c-1.2,0-2.2,1-2.2,2.7
			c0,1.6,0.9,2.7,2.1,2.7C647,1813.4,648.1,1812.6,648.1,1810.6z"/>
		<path class="st1" d="M657.4,1805.1c0-0.3-0.1-0.4-0.4-0.4h-0.7v-1.8h2.1c0.8,0,1.2,0.4,1.2,1.2v2.5c0,0.4,0,0.7,0,0.7h0
			c0,0,0.8-1.2,2.6-1.2c2.3,0,3.8,1.9,3.8,4.5c0,2.8-1.7,4.5-4,4.5c-1.8,0-2.6-1.2-2.6-1.2h0c0,0,0,0.2,0,0.6v0.4h-2V1805.1z
			 M661.7,1813.4c1.2,0,2.2-1,2.2-2.7c0-1.6-0.9-2.7-2.2-2.7c-1.1,0-2.2,0.8-2.2,2.7C659.5,1812.1,660.2,1813.4,661.7,1813.4z"/>
		<path class="st1" d="M668.5,1816.8c0.6,0,1.1-0.4,1.4-1.1l0.3-0.7l-2.9-6.5c-0.1-0.3-0.2-0.3-0.5-0.3h-0.3v-1.8h1.4
			c0.6,0,0.9,0.2,1.1,0.8l1.7,4.3c0.2,0.4,0.3,1.2,0.3,1.2h0c0,0,0.1-0.7,0.3-1.2l1.5-4.3c0.2-0.6,0.6-0.8,1.2-0.8h1.5v1.8h-0.3
			c-0.3,0-0.4,0.1-0.5,0.3l-3.1,7.8c-0.6,1.6-1.8,2.3-3.1,2.3c-1.4,0-2.2-0.9-2.2-0.9l0.8-1.5
			C667.3,1816.2,667.8,1816.8,668.5,1816.8z"/>
	</g>
	<g id="グループ_3" transform="translate(693.86 1796.153)">
		<g id="グループ_3-2">
			<path id="パス_13" class="st1" d="M21.4,7.6C20.7,5.5,13,5.5,13,5.5c0.7-3,0.7-5.1-0.1-5.4c-1-0.4-2.8,1.8-4.8,5.4
				C3.5,5.7,0,6.7,0,7.9c0,1,2.4,1.9,5.9,2.2c-0.1,0.1-5.8,13-2.4,13s7.7-12,8-12.8c1.4,0,2.8-0.2,4.2-0.4
				c-0.6,1.3-4.3,13.4-1.2,13.9S22.4,10.4,21.4,7.6z"/>
			<path id="パス_14" class="st1" d="M53.3,1.2C52,1,50.5,3.9,49.8,7.7s-0.2,7.2,1,7.4s2.8-2.6,3.5-6.5S54.5,1.5,53.3,1.2z"/>
			<path id="パス_15" class="st1" d="M61.7,1c-1.4-0.2-3.4,5.2-4.4,12S56.6,25.6,58,25.8s3.4-5.2,4.4-12S63.1,1.2,61.7,1z"/>
			<path id="パス_16" class="st1" d="M34.6,10.8c-5.3,0-9.6,0.9-9.6,2s4.3,2,9.6,2s9.6-0.9,9.6-2S39.9,10.8,34.6,10.8z"/>
			<path id="パス_17" class="st1" d="M73.6,2.3c-1.3-0.3-3.4,4.3-4.7,10.1s-1.5,10.8-0.2,11s3.4-4.3,4.7-10.1S74.8,2.5,73.6,2.3z"
				/>
			<path id="パス_18" class="st1" d="M91.2,15.2c-0.6-3.3-7.9,2.2-8.8,2.8c0.4-1.9,0.6-3.8,0.7-5.7c0-5.3-1.3-9.6-2.8-9.6
				s-2.8,4.3-2.8,9.6c0,4.1,0.8,8.6,1.8,10c0,0,0,0,0,0c0.1,0.1,0.2,0.2,0.3,0.3c0.2,0.2,0.5,0.3,0.7,0.3c0,0,0.1,0,0.1,0
				C82,23.3,91.8,18.5,91.2,15.2z"/>
		</g>
	</g>
</g>
</svg>
