<?xml version="1.0" encoding="utf-8"?>
<!-- Generator: Adobe Illustrator 24.2.3, SVG Export Plug-In . SVG Version: 6.00 Build 0)  -->
<svg version="1.1" id="レイヤー_1" xmlns="http://www.w3.org/2000/svg" xmlns:xlink="http://www.w3.org/1999/xlink" x="0px"
	 y="0px" viewBox="0 0 72.5 98" style="enable-background:new 0 0 72.5 98;" xml:space="preserve">
<style type="text/css">
	.st0{fill:#FFFFFF;}
</style>
<g id="グループ_2" transform="translate(-1526 -49.539)">
	<path id="np_repost_3163808_000000" class="st0" d="M1526,105.8V74.5c0-8.6,7-15.6,15.6-15.6h39.4l-5-3.8c-1.4-1-1.7-3-0.6-4.4
		c1-1.4,3-1.7,4.4-0.6l12.5,9.4c1.4,1,1.7,3,0.6,4.4c-0.2,0.2-0.4,0.4-0.6,0.6l-12.5,9.4c-1.4,1-3.3,0.8-4.4-0.6s-0.8-3.3,0.6-4.4
		l5-3.8h-39.4c-5.2,0-9.4,4.2-9.4,9.4v31.2c0,1.7-1.4,3.1-3.1,3.1S1526,107.5,1526,105.8z M1595.4,88.1c-1.7,0-3.1,1.4-3.1,3.1
		c0,0,0,0,0,0v31.2c0,5.2-4.2,9.4-9.4,9.4h-39.4l5-3.8c1.4-1,1.7-3,0.6-4.4s-3-1.7-4.4-0.6l0,0l-12.5,9.4c-1.4,1-1.7,3-0.6,4.4
		c0.2,0.2,0.4,0.4,0.6,0.6l12.5,9.4c1.4,1,3.3,0.8,4.4-0.6c1-1.4,0.8-3.3-0.6-4.4l-5-3.8h39.4c8.6,0,15.6-7,15.6-15.6V91.2
		C1598.5,89.5,1597.1,88.1,1595.4,88.1C1595.4,88.1,1595.4,88.1,1595.4,88.1z"/>
	<path class="st0" d="M1577.5,88.5h-30c-1.1,0-2-0.9-2-2s0.9-2,2-2h30c1.1,0,2,0.9,2,2S1578.6,88.5,1577.5,88.5z"/>
	<path class="st0" d="M1577.5,101.5h-30c-1.1,0-2-0.9-2-2s0.9-2,2-2h30c1.1,0,2,0.9,2,2S1578.6,101.5,1577.5,101.5z"/>
	<path class="st0" d="M1577.5,114.5h-30c-1.1,0-2-0.9-2-2s0.9-2,2-2h30c1.1,0,2,0.9,2,2S1578.6,114.5,1577.5,114.5z"/>
</g>
</svg>
