<?xml version="1.0" encoding="utf-8"?>
<!-- Generator: Adobe Illustrator 24.2.3, SVG Export Plug-In . SVG Version: 6.00 Build 0)  -->
<svg version="1.1" id="レイヤー_1" xmlns="http://www.w3.org/2000/svg" xmlns:xlink="http://www.w3.org/1999/xlink" x="0px"
	 y="0px" viewBox="0 0 201 36" style="enable-background:new 0 0 201 36;" xml:space="preserve">
<style type="text/css">
	.st0{enable-background:new    ;}
	.st1{fill:#FFFFFF;}
</style>
<g class="st0">
	<path class="st1" d="M0.3,24.7h0.5c0.5,0,0.8-0.1,0.9-0.7L8.1,6.7h4.1L18.5,24c0.2,0.5,0.4,0.7,0.9,0.7h0.5V28h-2.3
		c-1.5,0-2-0.4-2.5-1.7l-1.3-3.7H6.5l-1.3,3.7c-0.5,1.4-1,1.7-2.5,1.7H0.3V24.7z M12.8,19.3L11,14c-0.4-1.2-0.8-3.2-0.8-3.2h-0.1
		c0,0-0.5,2-0.8,3.2l-1.8,5.3H12.8z"/>
	<path class="st1" d="M22.6,10.6c0-0.5-0.2-0.7-0.7-0.7h-1.2V6.7h3.6c1.4,0,2,0.6,2,2v4.4c0,0.8-0.1,1.3-0.1,1.3h0.1
		c0,0,1.4-2.1,4.6-2.1c4.1,0,6.8,3.3,6.8,8c0,4.9-3,8-7,8c-3.2,0-4.6-2.2-4.6-2.2h-0.1c0,0,0.1,0.4,0.1,1V28h-3.6V10.6z M30.1,25.2
		c2.1,0,3.8-1.7,3.8-4.7c0-2.9-1.6-4.8-3.8-4.8c-2,0-3.8,1.4-3.8,4.8C26.3,22.8,27.5,25.2,30.1,25.2z"/>
	<path class="st1" d="M48.1,12.3c4.7,0,8.4,3.3,8.4,8c0,4.7-3.7,8-8.4,8c-4.6,0-8.4-3.3-8.4-8C39.7,15.7,43.4,12.3,48.1,12.3z
		 M48.1,25.1c2.5,0,4.6-1.9,4.6-4.8c0-2.8-2.1-4.8-4.6-4.8c-2.5,0-4.5,2-4.5,4.8C43.6,23.2,45.6,25.1,48.1,25.1z"/>
	<path class="st1" d="M59.9,16.6c0-0.5-0.2-0.7-0.7-0.7H58v-3.2h3.6c1.4,0,2,0.6,2,2v7c0,1.9,0.5,3.1,2.4,3.1c2.8,0,4.3-2.4,4.3-5.2
		v-7h3.8v11.4c0,0.4,0.2,0.7,0.7,0.7H76V28h-3.5c-1.3,0-2-0.6-2-1.7v-0.4c0-0.4,0-0.7,0-0.7h-0.1c-0.7,1.6-2.6,3.2-5.3,3.2
		c-3.3,0-5.3-1.7-5.3-5.8V16.6z"/>
	<path class="st1" d="M79.1,15.7h-2v-3h2.1V8.5h3.7v4.2h3.5v3h-3.5v6.2c0,2.5,2,2.9,3,2.9c0.4,0,0.7-0.1,0.7-0.1v3.3
		c0,0-0.5,0.1-1.2,0.1c-2.1,0-6.4-0.6-6.4-5.8V15.7z"/>
	<path class="st1" d="M98.6,10h-1.9V6.7h9.5c3.9,0,6.6,2.4,6.6,6.4c0,3.8-2.6,5.4-3.5,5.6v0.1c0,0,0.7,0.3,1,1.1l2.1,4.1
		c0.3,0.6,0.8,0.7,1.5,0.7h0.4V28h-2.1c-1.6,0-2.3-0.2-3-1.6l-2.7-5.4c-0.5-0.8-0.9-1-2-1h-2V28h-3.9V10z M105.7,16.7
		c2,0,3.2-1.2,3.2-3.4c0-2.1-1.2-3.3-3.1-3.3h-3.2v6.7H105.7z"/>
	<path class="st1" d="M123.1,12.3c4.4,0,6.8,3.2,6.8,7.3c0,0.5-0.1,1.4-0.1,1.4h-10.6c0.3,2.7,2.3,4.1,4.6,4.1
		c2.5,0,4.3-1.7,4.3-1.7l1.6,2.6c0,0-2.3,2.3-6.2,2.3c-5.1,0-8.2-3.7-8.2-8C115.3,15.6,118.5,12.3,123.1,12.3z M126,18.4
		c-0.1-1.8-1.3-3.1-2.9-3.1c-2,0-3.3,1.2-3.7,3.1H126z"/>
	<path class="st1" d="M133.6,15.7h-1.9v-3h1.9v-0.4c0-5,4.1-5.7,6.2-5.7c0.8,0,1.3,0.1,1.3,0.1v3.2c0,0-0.3-0.1-0.8-0.1
		c-1.1,0-2.9,0.3-2.9,2.5v0.4h3.3v3h-3.3V28h-3.8V15.7z"/>
	<path class="st1" d="M150.1,12.3c4.7,0,8.4,3.3,8.4,8c0,4.7-3.7,8-8.4,8c-4.6,0-8.4-3.3-8.4-8C141.7,15.7,145.5,12.3,150.1,12.3z
		 M150.1,25.1c2.5,0,4.6-1.9,4.6-4.8c0-2.8-2.1-4.8-4.6-4.8c-2.5,0-4.5,2-4.5,4.8C145.6,23.2,147.7,25.1,150.1,25.1z"/>
	<path class="st1" d="M162,16.6c0-0.5-0.2-0.7-0.7-0.7h-1.2v-3.2h3.5c1.3,0,2,0.6,2,1.9v0.9c0,0.6-0.1,1-0.1,1h0.1
		c0.7-2.2,2.5-3.9,4.9-3.9c0.3,0,0.7,0.1,0.7,0.1v3.7c0,0-0.4-0.1-0.9-0.1c-1.6,0-3.5,0.9-4.2,3.2c-0.2,0.8-0.3,1.6-0.3,2.5V28H162
		V16.6z"/>
	<path class="st1" d="M174.5,16.6c0-0.5-0.2-0.7-0.7-0.7h-1.2v-3.2h3.5c1.4,0,2,0.6,2,1.7v0.5c0,0.3,0,0.7,0,0.7h0.1
		c0.7-1.5,2.5-3.2,4.9-3.2c2.3,0,3.8,1.1,4.5,3.1h0.1c0.8-1.6,2.8-3.1,5.2-3.1c3.2,0,5,1.8,5,5.8v6c0,0.4,0.2,0.7,0.7,0.7h1.2V28
		h-3.6c-1.4,0-2-0.6-2-2v-7.1c0-1.7-0.3-3.1-2.1-3.1c-1.9,0-3.2,1.6-3.7,3.5c-0.2,0.6-0.2,1.2-0.2,2V28h-3.8v-9.1
		c0-1.7-0.2-3.1-2.1-3.1c-1.9,0-3.2,1.6-3.7,3.5c-0.2,0.6-0.2,1.2-0.2,1.9V28h-3.8V16.6z"/>
</g>
</svg>
