<?xml version="1.0" encoding="utf-8"?>
<!-- Generator: Adobe Illustrator 24.2.3, SVG Export Plug-In . SVG Version: 6.00 Build 0)  -->
<svg version="1.1" id="レイヤー_1" xmlns="http://www.w3.org/2000/svg" xmlns:xlink="http://www.w3.org/1999/xlink" x="0px"
	 y="0px" viewBox="0 0 162 36" style="enable-background:new 0 0 162 36;" xml:space="preserve">
<style type="text/css">
	.st0{enable-background:new    ;}
	.st1{fill:#FFFFFF;}
</style>
<g class="st0">
	<path class="st1" d="M3,10.7C3,10.3,2.7,10,2.3,10H1V6.7h3.8c1.4,0,2,0.6,2,2v7h9.4v-7c0-1.4,0.6-2,2-2h3.8V10h-1.3
		c-0.4,0-0.7,0.2-0.7,0.7V28h-3.9v-8.9H6.9V28H3V10.7z"/>
	<path class="st1" d="M32.4,12.3c4.7,0,8.4,3.3,8.4,8c0,4.7-3.7,8-8.4,8c-4.6,0-8.4-3.3-8.4-8C24,15.7,27.7,12.3,32.4,12.3z
		 M32.4,25.1c2.5,0,4.6-1.9,4.6-4.8c0-2.8-2.1-4.8-4.6-4.8c-2.5,0-4.5,2-4.5,4.8C27.8,23.2,29.9,25.1,32.4,25.1z"/>
	<path class="st1" d="M43,16.5c-0.1-0.5-0.4-0.5-0.8-0.5h-0.4v-3.2h2.6c1.3,0,1.9,0.4,2.2,1.6l2.2,8.5c0.2,0.8,0.3,1.6,0.3,1.6h0.1
		c0,0,0.1-0.8,0.4-1.6l2.8-10h3.4l2.9,10c0.2,0.8,0.3,1.6,0.3,1.6h0.1c0,0,0.1-0.8,0.3-1.6l2.2-8.5c0.3-1.2,0.9-1.6,2.2-1.6h2.6v3.2
		h-0.4c-0.5,0-0.7,0.1-0.8,0.5L61.3,28H57l-2.6-8.7c-0.2-0.8-0.4-1.7-0.4-1.7h-0.1c0,0-0.1,0.8-0.4,1.7L51,28h-4.3L43,16.5z"/>
	<path class="st1" d="M77,15.7h-2v-3h2.1V8.5h3.7v4.2h3.5v3h-3.5v6.2c0,2.5,2,2.9,3,2.9c0.4,0,0.7-0.1,0.7-0.1v3.3
		c0,0-0.5,0.1-1.2,0.1c-2.1,0-6.4-0.6-6.4-5.8V15.7z"/>
	<path class="st1" d="M94.6,12.3c4.7,0,8.4,3.3,8.4,8c0,4.7-3.7,8-8.4,8c-4.7,0-8.4-3.3-8.4-8C86.2,15.7,90,12.3,94.6,12.3z
		 M94.6,25.1c2.5,0,4.6-1.9,4.6-4.8c0-2.8-2.1-4.8-4.6-4.8c-2.5,0-4.5,2-4.5,4.8C90.1,23.2,92.2,25.1,94.6,25.1z"/>
	<path class="st1" d="M114.4,16.6c0-0.5-0.2-0.7-0.7-0.7h-1.2v-3.2h3.6c1.4,0,2,0.6,2,2v7c0,1.9,0.5,3.1,2.4,3.1
		c2.8,0,4.3-2.4,4.3-5.2v-7h3.8v11.4c0,0.4,0.2,0.7,0.7,0.7h1.2V28H127c-1.3,0-2-0.6-2-1.7v-0.4c0-0.4,0-0.7,0-0.7h-0.1
		c-0.7,1.6-2.6,3.2-5.3,3.2c-3.3,0-5.3-1.7-5.3-5.8V16.6z"/>
	<path class="st1" d="M133.6,23.1c0,0,1.9,2.2,4.6,2.2c1.2,0,2.1-0.5,2.1-1.5c0-2.2-8.1-2.1-8.1-7.1c0-3.1,2.8-4.5,5.9-4.5
		c2.1,0,5.4,0.7,5.4,3.2v1.6h-3.4v-0.8c0-0.7-1.1-1.1-1.9-1.1c-1.4,0-2.3,0.5-2.3,1.4c0,2.4,8.1,1.9,8.1,7c0,2.9-2.6,4.7-5.9,4.7
		c-4.2,0-6.4-2.7-6.4-2.7L133.6,23.1z"/>
	<path class="st1" d="M153.8,12.3c4.4,0,6.8,3.2,6.8,7.3c0,0.5-0.1,1.4-0.1,1.4H150c0.3,2.7,2.3,4.1,4.6,4.1c2.5,0,4.3-1.7,4.3-1.7
		l1.6,2.6c0,0-2.3,2.3-6.1,2.3c-5.1,0-8.2-3.7-8.2-8C146.1,15.6,149.2,12.3,153.8,12.3z M156.7,18.4c-0.1-1.8-1.3-3.1-2.9-3.1
		c-1.9,0-3.3,1.2-3.8,3.1H156.7z"/>
</g>
</svg>
