<?xml version="1.0" encoding="utf-8"?>
<!-- Generator: Adobe Illustrator 24.2.3, SVG Export Plug-In . SVG Version: 6.00 Build 0)  -->
<svg version="1.1" id="レイヤー_1" xmlns="http://www.w3.org/2000/svg" xmlns:xlink="http://www.w3.org/1999/xlink" x="0px"
	 y="0px" viewBox="0 0 286 62.3" style="enable-background:new 0 0 286 62.3;" xml:space="preserve">
<style type="text/css">
	.st0{enable-background:new    ;}
	.st1{fill:#FFFFFF;}
</style>
<g class="st0">
	<path class="st1" d="M6.2,9.5H0.8V0.3h26.4C38,0.3,45.6,7,45.6,18.1c0,10.6-7.3,15-9.8,15.5v0.2c0,0,1.8,0.8,2.9,3l5.7,11.4
		c0.9,1.7,2.3,1.9,4.1,1.9h1.1v9.2h-5.7c-4.4,0-6.3-0.7-8.2-4.4L28.1,40c-1.2-2.3-2.5-2.7-5.6-2.7h-5.5v22H6.2V9.5z M25.7,28
		c5.5,0,8.7-3.4,8.7-9.3c0-5.8-3.2-9.1-8.5-9.1h-8.8V28H25.7z"/>
	<path class="st1" d="M74,15.9c12.1,0,18.8,8.9,18.8,20.1c0,1.2-0.2,3.9-0.2,3.9H63.3c0.8,7.5,6.3,11.4,12.7,11.4
		c6.8,0,11.9-4.7,11.9-4.7l4.4,7.3c0,0-6.5,6.4-17,6.4c-14,0-22.7-10.1-22.7-22.2C52.5,25.1,61.3,15.9,74,15.9z M82,32.6
		c-0.2-5.1-3.7-8.5-8-8.5c-5.4,0-9.2,3.2-10.4,8.5H82z"/>
	<path class="st1" d="M103,25.3h-5.2v-8.4h5.2v-1.2C103,1.8,114.4,0,120.3,0c2.2,0,3.6,0.2,3.6,0.2v9c0,0-0.9-0.2-2.2-0.2
		c-3,0-8.1,0.7-8.1,6.9v1h9v8.4h-9v33.9H103V25.3z"/>
	<path class="st1" d="M148.7,15.9c12.9,0,23.2,9.2,23.2,22.2c0,13-10.3,22.2-23.2,22.2c-12.9,0-23.2-9.1-23.2-22.2
		C125.6,25.1,135.9,15.9,148.7,15.9z M148.7,51.3c6.9,0,12.6-5.3,12.6-13.2c0-7.8-5.7-13.2-12.6-13.2c-6.8,0-12.5,5.4-12.5,13.2
		C136.2,46,141.9,51.3,148.7,51.3z"/>
	<path class="st1" d="M181.5,27.7c0-1.2-0.7-1.8-1.8-1.8h-3.3v-9h9.6c3.7,0,5.6,1.6,5.6,5.1v2.5c0,1.6-0.2,2.7-0.2,2.7h0.2
		c1.9-6.1,7-10.9,13.4-10.9c0.9,0,1.9,0.2,1.9,0.2v10.4c0,0-1.1-0.2-2.6-0.2c-4.5,0-9.6,2.6-11.5,8.9c-0.6,2.1-0.9,4.4-0.9,6.9v16.8
		h-10.5V27.7z"/>
	<path class="st1" d="M216.2,27.7c0-1.2-0.7-1.8-1.8-1.8h-3.3v-9h9.7c3.7,0,5.6,1.7,5.6,4.7v1.2c0,0.9-0.1,1.8-0.1,1.8h0.2
		c2-4.1,7.1-8.8,13.7-8.8c6.4,0,10.5,3,12.4,8.7h0.2c2.2-4.6,7.7-8.7,14.4-8.7c8.8,0,13.9,5,13.9,16.1v16.5c0,1.2,0.7,1.8,1.8,1.8
		h3.2v8.9h-10c-4,0-5.6-1.7-5.6-5.6V34c0-4.8-0.9-8.5-5.8-8.5c-5.2,0-9,4.4-10.1,9.7c-0.5,1.7-0.7,3.4-0.7,5.4v18.6h-10.5V34
		c0-4.6-0.7-8.5-5.7-8.5c-5.3,0-8.9,4.4-10.2,9.8c-0.4,1.7-0.7,3.4-0.7,5.3v18.6h-10.5V27.7z"/>
</g>
</svg>
